<svg width="120" height="120" viewBox="0 0 120 120" fill="none" xmlns="http://www.w3.org/2000/svg">
<path d="M23.9875 39.9792H11.9938V43.9771H23.9875V39.9792Z" fill="black"/>
<path d="M107.944 39.9792H95.95V43.9771H107.944V39.9792Z" fill="black"/>
<path d="M27.4588 6.64116L24.6318 9.46814L33.1127 17.949L35.9397 15.122L27.4588 6.64116Z" fill="black"/>
<path d="M86.8249 66.0072L83.9979 68.8342L92.4787 77.3151L95.3057 74.4881L86.8249 66.0072Z" fill="black"/>
<path d="M33.1125 66.0072L24.6318 74.4882L27.4589 77.3151L35.9395 68.8341L33.1125 66.0072Z" fill="black"/>
<path d="M92.4787 6.64105L83.998 15.1221L86.8251 17.949L95.3057 9.46797L92.4787 6.64105Z" fill="black"/>
<path d="M61.9678 0H57.9698V9.99479H61.9678V0Z" fill="black"/>
<path d="M65.9753 115.94H53.9622C53.756 106.982 28.5968 99.9479 0 99.9479V109.049L37.9802 110.943L37.8748 112.94L0 111.052V119.937H119.938V111.052L82.0627 112.94L81.9573 110.943L119.938 109.049V99.9479C91.3407 99.9479 66.1815 106.982 65.9753 115.94Z" fill="black"/>
<path d="M71.9625 83.9563C71.9625 82.8959 71.5413 81.8791 70.7915 81.1293C70.0418 80.3795 69.0249 79.9583 67.9646 79.9583H51.9729C50.9126 79.9583 49.8957 80.3795 49.1459 81.1293C48.3962 81.8791 47.975 82.8959 47.975 83.9563C47.975 85.0166 48.3962 86.0335 49.1459 86.7832C49.8957 87.533 50.9126 87.9542 51.9729 87.9542H67.9646C69.0249 87.9542 70.0418 87.533 70.7915 86.7832C71.5413 86.0335 71.9625 85.0166 71.9625 83.9563Z" fill="black"/>
<path d="M53.3056 89.9531C52.3704 90.1246 51.5248 90.6185 50.9161 91.349C50.3074 92.0794 49.974 93.0002 49.974 93.951C49.974 94.9019 50.3074 95.8226 50.9161 96.5531C51.5248 97.2836 52.3704 97.7775 53.3056 97.949H66.6319C67.5672 97.7775 68.4127 97.2836 69.0215 96.5531C69.6302 95.8226 69.9636 94.9019 69.9636 93.951C69.9636 93.0002 69.6302 92.0794 69.0215 91.349C68.4127 90.6185 67.5672 90.1246 66.6319 89.9531H53.3056Z" fill="black"/>
<path d="M47.975 71.4628L50.5537 78.2192H69.3839L71.9625 71.4628C78.2761 68.7073 83.4483 63.862 86.6095 57.7416C89.7707 51.6211 90.7281 44.5988 89.3207 37.8555C87.9133 31.1122 84.2269 25.0592 78.8814 20.7142C73.536 16.3692 66.8574 13.9973 59.9688 13.9973C53.0802 13.9973 46.4016 16.3692 41.0562 20.7142C35.7107 25.0592 32.0243 31.1122 30.6169 37.8555C29.2095 44.5988 30.1669 51.6211 33.3281 57.7416C36.4893 63.862 41.6615 68.7073 47.975 71.4628V71.4628ZM61.9678 55.3851C61.9677 55.1226 62.0194 54.8627 62.1199 54.6202C62.2204 54.3777 62.3677 54.1574 62.5534 53.9719L72.5482 43.9771L75.3748 46.8037L65.9657 56.2129V75.3747H61.9678V55.3851ZM47.3893 43.9771L57.3841 53.9719C57.5698 54.1574 57.7171 54.3777 57.8176 54.6202C57.9181 54.8627 57.9699 55.1226 57.9698 55.3851V75.3747H53.9719V56.2129L44.5628 46.8038L47.3893 43.9771Z" fill="black"/>
</svg>
