<svg width="120" height="121" viewBox="0 0 120 121" fill="none" xmlns="http://www.w3.org/2000/svg">
<path d="M27.0387 63.7728L29.9052 60.5734C31.1434 61.0202 32.4166 61.3633 33.7116 61.5993L34.5893 65.775H41.4107L42.2882 61.5993C43.5832 61.3634 44.8563 61.0203 46.0945 60.5735L48.9609 63.7731C51.0508 62.8723 53.0229 61.7195 54.8332 60.3402L53.5075 56.3036C54.5129 55.4506 55.4468 54.5166 56.2997 53.5111L60.3365 54.8371C61.7159 53.0267 62.8689 51.0546 63.7697 48.9644L60.5705 46.098C61.0172 44.8597 61.3603 43.5866 61.5962 42.2916L65.7719 41.4139V34.5925L61.5962 33.7149C61.3604 32.4199 61.0173 31.1468 60.5706 29.9086L63.77 27.0423C62.8693 24.9523 61.7164 22.9802 60.3372 21.17L56.3006 22.4956C55.4476 21.4901 54.5136 20.5563 53.508 19.7034L54.834 15.6666C53.0237 14.2872 51.0515 13.1342 48.9614 12.2334L46.0949 15.4326C44.8567 14.9859 43.5835 14.6428 42.2885 14.4069L41.4108 10.2312H34.5894L33.7118 14.4069C32.4169 14.6428 31.1437 14.9858 29.9055 15.4325L27.0392 12.2332C24.9492 13.1339 22.9772 14.2868 21.1669 15.666L22.4926 19.7026C21.4871 20.5556 20.5532 21.4895 19.7003 22.4951L15.6636 21.1691C14.2842 22.9794 13.1313 24.9515 12.2305 27.0416L15.4297 29.9081C14.9829 31.1463 14.6398 32.4195 14.404 33.7145L10.2281 34.5922V41.4137L14.4038 42.2913C14.6396 43.5863 14.9827 44.8594 15.4295 46.0975L12.2301 48.9639C13.1309 51.0539 14.2837 53.0259 15.663 54.8362L19.6996 53.5105C20.5525 54.516 21.4865 55.4499 22.492 56.3028L21.166 60.3395C22.9764 61.719 24.9486 62.8719 27.0387 63.7728V63.7728ZM22 38.0031C22 34.8386 22.9384 31.7451 24.6965 29.114C26.4546 26.4828 28.9535 24.432 31.8771 23.221C34.8007 22.01 38.0178 21.6931 41.1215 22.3105C44.2252 22.9279 47.0761 24.4517 49.3138 26.6894C51.5514 28.927 53.0752 31.7779 53.6926 34.8816C54.31 37.9853 53.9931 41.2024 52.7821 44.126C51.5711 47.0496 49.5203 49.5485 46.8892 51.3066C44.258 53.0647 41.1645 54.0031 38 54.0031C33.7566 54.0031 29.6869 52.3174 26.6863 49.3168C23.6857 46.3162 22 42.2466 22 38.0031Z" fill="black"/>
<path d="M34 30.0031V46.0031L46 38.0031L34 30.0031Z" fill="black"/>
<path d="M92.9613 56.2335L90.0949 59.4327C88.8567 58.986 87.5835 58.6429 86.2885 58.4069L85.4108 54.2313H78.5894L77.7118 58.4069C76.4169 58.6428 75.1437 58.9859 73.9055 59.4326L71.0392 56.2332C68.9492 57.134 66.9772 58.2868 65.1669 59.6661L66.4926 63.7027C65.4871 64.5557 64.5532 65.4896 63.7003 66.4951L59.6636 65.1691C58.2842 66.9794 57.1313 68.9516 56.2305 71.0417L59.4297 73.9081C58.9829 75.1463 58.6398 76.4195 58.4039 77.7145L54.2281 78.5922V85.4138L58.4038 86.2913C58.6396 87.5863 58.9827 88.8595 59.4295 90.0976L56.2301 92.964C57.1309 95.0539 58.2837 97.026 59.663 98.8363L63.6996 97.5106C64.5525 98.5161 65.4865 99.45 66.492 100.303L65.166 104.34C66.9764 105.719 68.9486 106.872 71.0387 107.773L73.9052 104.573C75.1434 105.02 76.4165 105.363 77.7115 105.599L78.5892 109.775H85.4107L86.2882 105.599C87.5832 105.363 88.8563 105.02 90.0945 104.574L92.9609 107.773C95.0508 106.872 97.0229 105.72 98.8332 104.34L97.5075 100.304C98.5129 99.4507 99.4468 98.5167 100.3 97.5112L104.336 98.8372C105.716 97.0268 106.869 95.0546 107.77 92.9645L104.57 90.098C105.017 88.8598 105.36 87.5866 105.596 86.2916L109.772 85.4139V78.5925L105.596 77.7149C105.36 76.42 105.017 75.1468 104.571 73.9087L107.77 71.0423C106.869 68.9523 105.716 66.9803 104.337 65.17L100.301 66.4957C99.4476 65.4902 98.5136 64.5563 97.508 63.7034L98.834 59.6667C97.0237 58.2873 95.0515 57.1343 92.9613 56.2335V56.2335ZM98 82.0031C98 85.1676 97.0617 88.2611 95.3036 90.8923C93.5455 93.5235 91.0466 95.5742 88.123 96.7852C85.1993 97.9962 81.9823 98.3131 78.8786 97.6957C75.7749 97.0784 72.924 95.5545 70.6863 93.3169C68.4487 91.0792 66.9248 88.2283 66.3075 85.1246C65.6901 82.0209 66.0069 78.8038 67.2179 75.8802C68.4289 72.9566 70.4797 70.4577 73.1109 68.6996C75.7421 66.9415 78.8355 66.0031 82 66.0031C86.2435 66.0031 90.3132 67.6888 93.3137 70.6894C96.3143 73.69 98 77.7597 98 82.0031Z" fill="black"/>
<path d="M78.0001 90.0031L90.0001 82.0031L78.0001 74.0031V90.0031Z" fill="black"/>
<path d="M44.5292 88.3429C45.7376 95.4863 48.9628 102.136 53.8248 107.507C58.6868 112.878 64.9829 116.748 71.9711 118.659C78.9593 120.571 86.3483 120.445 93.2674 118.297C100.186 116.148 106.347 112.067 111.024 106.533C115.7 101 118.697 94.2444 119.662 87.0639C120.626 79.8835 119.518 72.5769 116.468 66.0054C113.418 59.4338 108.552 53.8711 102.446 49.9728C96.3388 46.0746 89.2449 44.0033 81.9999 44.003V48.003C88.7245 48.003 95.298 49.9971 100.889 53.733C106.481 57.469 110.838 62.7791 113.412 68.9918C115.985 75.2045 116.659 82.0407 115.347 88.6361C114.035 95.2315 110.797 101.29 106.042 106.045C101.287 110.8 95.2283 114.038 88.633 115.35C82.0376 116.662 75.2014 115.988 68.9887 113.415C62.776 110.842 57.4659 106.484 53.7299 100.892C49.9939 95.3012 47.9999 88.7276 47.9999 82.003C47.9999 81.5657 47.8565 81.1403 47.5918 80.7922C47.327 80.4441 46.9554 80.1924 46.5339 80.0756C46.1124 79.9588 45.6643 79.9834 45.2581 80.1456C44.8519 80.3078 44.5101 80.5987 44.285 80.9737L38.285 90.9737L41.7147 93.0323L44.5292 88.3429Z" fill="black"/>
<path d="M38 76.0031V72.0031C31.2755 72.0031 24.7019 70.009 19.1106 66.273C13.5194 62.537 9.16148 57.227 6.5881 51.0143C4.01472 44.8016 3.34141 37.9653 4.65331 31.37C5.9652 24.7746 9.20339 18.7164 13.9584 13.9614C18.7134 9.20639 24.7716 5.9682 31.367 4.6563C37.9623 3.34441 44.7986 4.01772 51.0113 6.5911C57.224 9.16448 62.534 13.5224 66.27 19.1136C70.006 24.7049 72.0001 31.2785 72.0001 38.003C72 38.4404 72.1434 38.8657 72.4082 39.2138C72.6729 39.562 73.0445 39.8137 73.466 39.9305C73.8875 40.0473 74.3357 40.0227 74.7418 39.8605C75.148 39.6982 75.4898 39.4073 75.7149 39.0323L81.7149 29.0323L78.2852 26.9737L75.4708 31.6632C74.2624 24.5197 71.0371 17.8705 66.1751 12.4993C61.3131 7.12799 55.017 3.25849 48.0289 1.3468C41.0407 -0.5649 33.6516 -0.439122 26.7325 1.70931C19.8134 3.85774 13.6527 7.93928 8.97634 13.4729C4.29998 19.0065 1.3029 25.7616 0.338328 32.9421C-0.626247 40.1226 0.481877 47.4291 3.53211 54.0007C6.58233 60.5723 11.4475 66.135 17.5544 70.0332C23.6612 73.9314 30.7551 76.0028 38 76.0031V76.0031Z" fill="black"/>
</svg>
