<svg width="120" height="120" viewBox="0 0 120 120" fill="none" xmlns="http://www.w3.org/2000/svg">
<path d="M102 84H62V94H102V84Z" fill="black"/>
<path d="M50 110H0V120H50V110Z" fill="black"/>
<path d="M82.012 34C85.3257 34 88.012 31.3137 88.012 28C88.012 24.6863 85.3257 22 82.012 22C78.6983 22 76.012 24.6863 76.012 28C76.012 31.3137 78.6983 34 82.012 34Z" fill="black"/>
<path d="M44 56H120V0H44V56ZM110 6H114V10H110V6ZM102 6H106V10H102V6ZM62.122 25.7885L68.5584 24.0387C68.8399 23.0904 69.2217 22.1748 69.6973 21.3074L66.3755 15.5092L69.4969 12.3877L75.2953 15.7094C76.1627 15.2337 77.0785 14.8519 78.0269 14.5704L79.7767 8.134C81.2465 7.97132 82.7296 7.97136 84.1993 8.13412L85.9491 14.5706C86.8975 14.8521 87.8131 15.2339 88.6805 15.7094L94.4788 12.3877L97.6002 15.5092L94.2786 21.3075C94.7541 22.1749 95.1359 23.0905 95.4174 24.0389L101.854 25.7888C102.017 27.2584 102.017 28.7416 101.854 30.2113V30.2116L95.4174 31.9614C95.1359 32.9097 94.7541 33.8253 94.2786 34.6927L97.6002 40.4908L94.4788 43.6124L88.6805 40.2907C87.8131 40.7664 86.8974 41.1481 85.949 41.4295L84.1991 47.866L84.1985 47.8661C82.729 48.0287 81.246 48.0287 79.7765 47.866L78.0267 41.4295C77.0784 41.148 76.1627 40.7663 75.2953 40.2907L69.4969 43.6123L66.3756 40.4909L69.6973 34.6927C69.2217 33.8252 68.8399 32.9095 68.5583 31.9611L62.1219 30.2111C61.9594 28.7414 61.9594 27.2582 62.122 25.7885V25.7885Z" fill="black"/>
<path d="M26 52C21.6488 52 17.3953 53.2903 13.7775 55.7077C10.1596 58.1251 7.33979 61.561 5.67466 65.581C4.00953 69.6009 3.57386 74.0244 4.42273 78.292C5.27161 82.5596 7.36691 86.4796 10.4437 89.5564C13.5204 92.6331 17.4404 94.7284 21.708 95.5773C25.9756 96.4262 30.3991 95.9905 34.419 94.3253C38.439 92.6602 41.875 89.8404 44.2923 86.2225C46.7097 82.6047 48 78.3512 48 74C48 68.1652 45.6822 62.5694 41.5564 58.4436C37.4306 54.3178 31.8348 52 26 52V52ZM26 80C24.8133 80 23.6533 79.6481 22.6666 78.9888C21.6799 78.3295 20.9109 77.3925 20.4567 76.2961C20.0026 75.1997 19.8838 73.9933 20.1153 72.8295C20.3468 71.6656 20.9183 70.5965 21.7574 69.7574C22.5965 68.9182 23.6656 68.3468 24.8295 68.1153C25.9934 67.8838 27.1998 68.0026 28.2961 68.4567C29.3925 68.9109 30.3295 69.6799 30.9888 70.6666C31.6481 71.6533 32 72.8133 32 74C32 75.5913 31.3679 77.1174 30.2427 78.2426C29.1174 79.3679 27.5913 80 26 80V80Z" fill="black"/>
<path d="M6 92H2V106H6V92Z" fill="black"/>
<path d="M48 92H44V106H48V92Z" fill="black"/>
<path d="M40 98H36V106H40V98Z" fill="black"/>
<path d="M14 98H10V106H14V98Z" fill="black"/>
<path d="M22 102H18V106H22V102Z" fill="black"/>
<path d="M32 102H28V106H32V102Z" fill="black"/>
<path d="M104.343 98.6862L103.35 99.6796L108.318 104.611L114.879 98.0507C113.347 96.8544 111.431 96.2588 109.491 96.3758C107.551 96.4929 105.72 97.3145 104.343 98.6862Z" fill="black"/>
<path d="M109.738 106.02L114.706 110.951L115.657 110C117.029 108.623 117.85 106.793 117.967 104.853C118.084 102.913 117.489 100.997 116.293 99.465L109.738 106.02Z" fill="black"/>
<path d="M98.6863 104.343C97.186 105.843 96.3431 107.878 96.3431 110C96.3431 112.122 97.186 114.157 98.6863 115.657C100.187 117.157 102.221 118 104.343 118C106.465 118 108.5 117.157 110 115.657L113.194 112.463L101.838 101.191L98.6863 104.343Z" fill="black"/>
<path d="M88 66H78V82H88V66Z" fill="black"/>
<path d="M44 58.1787C45.4594 59.8381 46.6832 61.6907 47.6367 63.6842H120V58H44V58.1787Z" fill="black"/>
</svg>
