<svg width="615" height="698" viewBox="0 0 615 698" fill="none" xmlns="http://www.w3.org/2000/svg">
    <path d="M261.943 331.46V546.106C261.937 547.751 261.501 549.367 260.677 550.791C259.852 552.215 258.669 553.398 257.245 554.222C255.82 555.047 254.205 555.483 252.559 555.488C250.913 555.492 249.295 555.066 247.866 554.25L214.606 534.824C213.173 533.997 211.983 532.807 211.157 531.374C210.331 529.94 209.897 528.314 209.9 526.66V371.678C209.898 370.025 209.463 368.401 208.637 366.968C207.812 365.535 206.624 364.344 205.194 363.514L163.146 339.926C161.724 339.114 160.115 338.687 158.478 338.688C156.841 338.688 155.232 339.115 153.811 339.928C152.389 340.74 151.204 341.909 150.373 343.319C149.541 344.73 149.092 346.333 149.07 347.97V482.701C149.047 484.338 148.598 485.941 147.767 487.352C146.935 488.762 145.75 489.931 144.329 490.743C142.907 491.556 141.298 491.983 139.661 491.983C138.024 491.984 136.415 491.557 134.993 490.745L107.544 474.456C106.116 473.629 104.929 472.442 104.104 471.013C103.278 469.584 102.842 467.963 102.839 466.312V251.586C102.843 249.939 103.278 248.323 104.101 246.896C104.924 245.47 106.106 244.284 107.529 243.456C108.953 242.629 110.568 242.188 112.215 242.179C113.861 242.169 115.482 242.591 116.915 243.402L257.197 323.235C258.646 324.062 259.849 325.26 260.683 326.705C261.517 328.15 261.952 329.791 261.943 331.46V331.46Z" fill="black" fill-opacity="0.11"/>
    <path d="M615 525.715C615.005 527.373 614.576 529.003 613.753 530.443C612.931 531.883 611.745 533.082 610.315 533.919L368.602 673.457L328.705 696.543C327.274 697.359 325.655 697.786 324.007 697.78C322.36 697.775 320.743 697.337 319.318 696.51C317.893 695.684 316.71 694.498 315.887 693.071C315.064 691.644 314.63 690.026 314.629 688.378V355.43C314.626 353.778 315.058 352.154 315.88 350.722C316.702 349.289 317.887 348.097 319.314 347.266L354.465 326.915C355.897 326.105 357.515 325.683 359.16 325.692C360.805 325.701 362.419 326.139 363.842 326.965C365.265 327.79 366.447 328.973 367.272 330.397C368.096 331.82 368.534 333.435 368.541 335.08V468.001C368.547 469.647 368.983 471.263 369.807 472.687C370.632 474.111 371.815 475.294 373.24 476.118C374.664 476.942 376.279 477.379 377.925 477.383C379.571 477.388 381.189 476.961 382.618 476.146L446.384 439.326C447.821 438.501 449.014 437.312 449.844 435.878C450.674 434.445 451.11 432.818 451.11 431.161V276.099C451.115 274.449 450.684 272.828 449.862 271.397C449.039 269.967 447.853 268.78 446.424 267.955L260.696 160.532C259.268 159.705 258.083 158.517 257.259 157.088C256.434 155.658 256.001 154.037 256.001 152.387C256.001 150.737 256.434 149.116 257.259 147.687C258.083 146.258 259.268 145.07 260.696 144.243L302.764 119.951C304.197 119.121 305.824 118.685 307.48 118.685C309.136 118.685 310.762 119.121 312.195 119.951L507.577 232.744C509.004 233.572 510.189 234.76 511.014 236.189C511.84 237.618 512.277 239.238 512.282 240.888V466.433C512.281 468.084 511.846 469.706 511.02 471.135C510.194 472.565 509.006 473.752 507.577 474.577L373.287 552.118C371.871 552.934 370.692 554.105 369.866 555.515C369.041 556.926 368.598 558.528 368.582 560.162V607.579C368.587 609.225 369.023 610.841 369.848 612.265C370.672 613.689 371.855 614.872 373.28 615.696C374.704 616.52 376.32 616.957 377.965 616.961C379.611 616.966 381.229 616.539 382.658 615.724L567.422 509.145C568.849 508.314 570.033 507.122 570.856 505.689C571.678 504.256 572.11 502.633 572.107 500.981V206.26C572.102 204.612 571.667 202.994 570.845 201.566C570.024 200.138 568.844 198.948 567.422 198.116L312.216 50.7353C310.783 49.9056 309.156 49.4687 307.5 49.4687C305.844 49.4687 304.217 49.9056 302.784 50.7353L47.5382 198.116C46.4902 198.718 45.5738 199.525 44.8435 200.489C43.5566 202.139 42.8498 204.167 42.8326 206.26V501.001C42.8301 502.653 43.2616 504.276 44.0839 505.709C44.9062 507.142 46.0904 508.334 47.5181 509.165L260.676 632.233C262.118 633.047 263.319 634.231 264.153 635.662C264.987 637.093 265.425 638.721 265.421 640.378V668.128C265.41 669.772 264.97 671.383 264.144 672.804C263.319 674.225 262.136 675.405 260.714 676.228C259.291 677.051 257.678 677.488 256.035 677.496C254.392 677.504 252.775 677.082 251.345 676.273L4.68545 533.899C3.26077 533.07 2.07844 531.881 1.25633 530.452C0.434214 529.023 0.00104134 527.404 0 525.755V181.526C0.00555082 179.875 0.440448 178.255 1.26194 176.823C2.08344 175.392 3.26326 174.199 4.68545 173.361L302.784 1.26666C304.217 0.436924 305.844 0 307.5 0C309.156 0 310.783 0.436924 312.216 1.26666L608.826 172.597C610.767 173.73 612.236 175.521 612.969 177.645C613.321 178.625 613.505 179.659 613.512 180.701L615 525.715Z" fill="black" fill-opacity="0.11"/>
    <path d="M209.86 178.992L252.089 203.384C253.522 204.21 254.711 205.398 255.539 206.83C256.366 208.261 256.802 209.885 256.802 211.539C256.802 213.192 256.366 214.816 255.539 216.248C254.711 217.679 253.522 218.867 252.089 219.693L209.86 244.085C208.427 244.905 206.805 245.337 205.154 245.337C203.503 245.337 201.881 244.905 200.449 244.085L158.219 219.693C156.787 218.867 155.597 217.679 154.77 216.248C153.942 214.816 153.507 213.192 153.507 211.539C153.507 209.885 153.942 208.261 154.77 206.83C155.597 205.398 156.787 204.21 158.219 203.384L200.449 178.992C201.878 178.162 203.501 177.725 205.154 177.725C206.807 177.725 208.43 178.162 209.86 178.992Z" fill="black" fill-opacity="0.11"/>
</svg>
