<svg width="378" height="73" viewBox="0 0 378 73" fill="none" xmlns="http://www.w3.org/2000/svg">
    <path d="M27.2591 34.4934V56.8305C27.2592 57.002 27.2141 57.1705 27.1285 57.3191C27.0429 57.4677 26.9196 57.5911 26.7712 57.677C26.6228 57.7629 26.4543 57.8082 26.2828 57.8084C26.1113 57.8086 25.9428 57.7636 25.7942 57.6781L22.3329 55.6565C22.1838 55.5705 22.0601 55.4466 21.9741 55.2974C21.8881 55.1483 21.843 54.9791 21.8432 54.8069V38.6788C21.8435 38.5066 21.7984 38.3374 21.7124 38.1882C21.6264 38.0391 21.5027 37.9152 21.3536 37.8291L16.9799 35.3744C16.8318 35.2906 16.6645 35.2467 16.4944 35.247C16.3242 35.2474 16.1571 35.2919 16.0094 35.3764C15.8617 35.4608 15.7384 35.5821 15.6518 35.7285C15.5651 35.875 15.518 36.0414 15.515 36.2115V50.2324C15.5127 50.4027 15.4659 50.5695 15.3794 50.7163C15.2929 50.8631 15.1696 50.9847 15.0216 51.0692C14.8737 51.1538 14.7063 51.1983 14.5359 51.1983C14.3655 51.1983 14.1981 51.1539 14.0502 51.0694L11.1937 49.3744C11.045 49.2883 10.9216 49.1647 10.8356 49.016C10.7497 48.8673 10.7043 48.6986 10.704 48.5268V26.1814C10.7044 26.01 10.7497 25.8417 10.8353 25.6933C10.921 25.5449 11.044 25.4215 11.1921 25.3353C11.3403 25.2492 11.5084 25.2033 11.6797 25.2023C11.8511 25.2014 12.0197 25.2452 12.1688 25.3296L26.7652 33.6375C26.9157 33.7239 27.0407 33.8486 27.1274 33.9989C27.2142 34.1493 27.2596 34.3199 27.2591 34.4934V34.4934Z" fill="#5F66AE"/>
    <path d="M27.6211 66.641V69.5289C27.6206 69.7001 27.5751 69.8682 27.4894 70.0164C27.4036 70.1646 27.2804 70.2878 27.1322 70.3735C26.984 70.4593 26.8158 70.5047 26.6446 70.5052C26.4733 70.5057 26.305 70.4613 26.1562 70.3764L0.489684 55.5603C0.340751 55.4746 0.21706 55.3511 0.131087 55.2023C0.045114 55.0535 -0.000102064 54.8846 1.72989e-07 54.7128V18.8905C0.00286158 18.6723 0.0762756 18.4609 0.209267 18.2878L4.66665 20.8639C4.53286 21.0357 4.45932 21.2468 4.45738 21.4645V52.1388C4.45791 52.3105 4.50339 52.4791 4.5893 52.6278C4.67521 52.7765 4.79855 52.9001 4.94706 52.9863L27.1293 65.7934C27.2785 65.8791 27.4025 66.0025 27.4888 66.1513C27.5752 66.3001 27.6208 66.469 27.6211 66.641V66.641Z" fill="#5F66AE"/>
    <path d="M64 54.7086C64.0012 54.8815 63.9565 55.0516 63.8704 55.2016C63.7844 55.3516 63.6601 55.4761 63.5103 55.5624L38.3564 70.0834L34.2088 72.4858C34.0598 72.5701 33.8913 72.614 33.7202 72.6131C33.549 72.6122 33.381 72.5665 33.2329 72.4806C33.0848 72.3947 32.9618 72.2716 32.876 72.1235C32.7902 71.9753 32.7447 71.8073 32.7439 71.6362V36.9879C32.7445 36.8159 32.79 36.647 32.8759 36.498C32.9617 36.349 33.085 36.225 33.2336 36.1383L36.8937 34.0205C37.0425 33.9355 37.2111 33.8911 37.3825 33.8917C37.554 33.8923 37.7222 33.9379 37.8705 34.0239C38.0188 34.1099 38.1419 34.2333 38.2276 34.3818C38.3132 34.5303 38.3584 34.6987 38.3585 34.8701V48.7026C38.359 48.8739 38.4045 49.042 38.4903 49.1902C38.576 49.3384 38.6992 49.4616 38.8474 49.5473C38.9956 49.6331 39.1638 49.6785 39.335 49.679C39.5063 49.6795 39.6747 49.6351 39.8234 49.5502L46.4634 45.7185C46.6124 45.6323 46.736 45.5083 46.822 45.3592C46.9079 45.2101 46.9531 45.041 46.9531 44.8689V28.7323C46.9531 28.5692 46.9121 28.4088 46.8338 28.2657L53.1913 24.5972C53.2679 24.7401 53.3082 24.8997 53.3085 25.0618V48.5394C53.3086 48.7113 53.2634 48.8801 53.1774 49.0289C53.0915 49.1777 52.9678 49.3012 52.8188 49.3869L38.844 57.4563C38.697 57.5416 38.5747 57.6635 38.4888 57.8102C38.403 57.9569 38.3567 58.1234 38.3543 58.2933V63.2278C38.3549 63.3991 38.4003 63.5672 38.4861 63.7154C38.5719 63.8636 38.695 63.9867 38.8432 64.0725C38.9915 64.1583 39.1596 64.2037 39.3308 64.2042C39.5021 64.2047 39.6705 64.1603 39.8192 64.0754L59.0466 52.9842C59.1954 52.8983 59.319 52.7748 59.4049 52.626C59.4909 52.4773 59.5362 52.3085 59.5363 52.1367V21.4645C59.537 21.3016 59.4967 21.1411 59.4191 20.9978L63.7844 18.4866C63.8204 18.5895 63.8388 18.6978 63.8388 18.8068L64 54.7086Z" fill="#16759D"/>
    <path d="M53.1935 24.5972L46.8359 28.2657C46.7511 28.1061 46.6226 27.974 46.4655 27.8848L27.1314 16.7058C26.9823 16.6199 26.8585 16.4962 26.7724 16.3472C26.6863 16.1983 26.641 16.0293 26.641 15.8572C26.641 15.6851 26.6863 15.5161 26.7724 15.3672C26.8585 15.2182 26.9823 15.0945 27.1314 15.0086L31.5093 12.4807C31.6583 12.3953 31.8272 12.3504 31.9989 12.3504C32.1707 12.3504 32.3395 12.3953 32.4886 12.4807L52.8189 24.2184C52.9764 24.3076 53.1061 24.4387 53.1935 24.5972V24.5972Z" fill="#4DB8E0"/>
    <path d="M63.7907 18.4762L59.4254 20.9874C59.3386 20.8286 59.2097 20.6969 59.053 20.6065L32.4907 5.27982C32.342 5.19345 32.1731 5.14796 32.0011 5.14796C31.8291 5.14796 31.6601 5.19345 31.5114 5.27982L4.94707 20.617C4.83843 20.6803 4.74318 20.7641 4.66666 20.8639L0.205093 18.2878C0.283731 18.1891 0.380283 18.106 0.489695 18.043L31.5114 0.131861C31.6601 0.0454921 31.8291 0 32.0011 0C32.1731 0 32.342 0.0454921 32.4907 0.131861L63.3555 17.9614C63.5571 18.0758 63.7115 18.2583 63.7907 18.4762V18.4762Z" fill="#4DB8E0"/>
    <path d="M21.8391 18.6268L26.2337 21.1652C26.3827 21.2511 26.5066 21.3748 26.5926 21.5237C26.6787 21.6727 26.7241 21.8417 26.7241 22.0138C26.7241 22.1858 26.6787 22.3549 26.5926 22.5038C26.5066 22.6528 26.3827 22.7765 26.2337 22.8624L21.8391 25.4008C21.69 25.4861 21.5212 25.531 21.3494 25.531C21.1776 25.531 21.0088 25.4861 20.8597 25.4008L16.4651 22.8624C16.316 22.7765 16.1922 22.6528 16.1061 22.5038C16.02 22.3549 15.9747 22.1858 15.9747 22.0138C15.9747 21.8417 16.02 21.6727 16.1061 21.5237C16.1922 21.3748 16.316 21.2511 16.4651 21.1652L20.8597 18.6268C21.0084 18.5404 21.1774 18.4949 21.3494 18.4949C21.5214 18.4949 21.6903 18.5404 21.8391 18.6268Z" fill="#EC5749"/>
    <path d="M152.142 40.5971V48.3758C152.142 48.5414 152.078 48.7001 151.963 48.8172C151.848 48.9342 151.692 49 151.53 49H146.612C146.45 49 146.294 48.9342 146.179 48.8172C146.065 48.7001 146 48.5414 146 48.3758V22.628C146 22.4624 146.065 22.3036 146.179 22.1866C146.294 22.0695 146.45 22.0038 146.612 22.0038H155.348C156.975 21.9673 158.597 22.1956 160.154 22.68C161.373 23.0594 162.501 23.6939 163.466 24.5431C164.312 25.3073 164.969 26.265 165.382 27.3378C165.801 28.4497 166.01 29.6319 165.999 30.8228C166.015 32.0881 165.799 33.3453 165.364 34.5301C164.953 35.6383 164.286 36.6294 163.42 37.4194C162.456 38.2796 161.326 38.924 160.103 39.3109C158.563 39.7902 156.958 40.0185 155.348 39.9871H152.759C152.598 39.9858 152.443 40.049 152.328 40.1632C152.213 40.2773 152.146 40.4332 152.142 40.5971V40.5971ZM152.142 34.6247C152.142 34.7902 152.207 34.949 152.322 35.0661C152.436 35.1831 152.592 35.2489 152.755 35.2489H155.343C156.944 35.2489 158.094 34.8564 158.795 34.0809C159.544 33.1717 159.923 32.0037 159.852 30.8181C159.859 30.2449 159.766 29.6751 159.579 29.1347C159.405 28.6394 159.123 28.1912 158.753 27.8248C158.354 27.4448 157.879 27.1576 157.361 26.9831C156.712 26.7716 156.034 26.6709 155.352 26.6852H152.764C152.601 26.6852 152.446 26.751 152.331 26.868C152.216 26.9851 152.151 27.1438 152.151 27.3094L152.142 34.6247Z" fill="#4DB8E0"/>
    <path d="M190.982 22.6242V26.1895C190.98 26.3559 190.915 26.5152 190.8 26.6328C190.685 26.7505 190.53 26.8171 190.367 26.8184H180.768C180.687 26.8178 180.607 26.8334 180.533 26.8645C180.458 26.8956 180.391 26.9415 180.333 26.9995C180.276 27.0575 180.231 27.1266 180.2 27.2026C180.169 27.2786 180.153 27.3602 180.153 27.4426V32.4926C180.153 32.575 180.169 32.6566 180.2 32.7326C180.231 32.8086 180.276 32.8777 180.333 32.9357C180.391 32.9937 180.458 33.0396 180.533 33.0707C180.607 33.1017 180.687 33.1174 180.768 33.1168H187.831C187.912 33.1162 187.992 33.132 188.067 33.1634C188.142 33.1948 188.21 33.2411 188.267 33.2996C188.324 33.3581 188.369 33.4277 188.4 33.5043C188.431 33.5809 188.446 33.6629 188.445 33.7457V37.1219C188.446 37.2047 188.431 37.2867 188.4 37.3633C188.369 37.4399 188.324 37.5095 188.267 37.568C188.21 37.6265 188.142 37.6728 188.067 37.7042C187.992 37.7356 187.912 37.7514 187.831 37.7508H180.768C180.687 37.7502 180.607 37.7658 180.533 37.7969C180.458 37.828 180.391 37.8739 180.333 37.9319C180.276 37.9899 180.231 38.059 180.2 38.135C180.169 38.211 180.153 38.2926 180.153 38.3749V43.5527C180.153 43.7195 180.218 43.8795 180.333 43.9974C180.448 44.1153 180.605 44.1816 180.768 44.1816H190.386C190.548 44.1816 190.703 44.2472 190.818 44.3641C190.934 44.481 190.999 44.6398 191 44.8058V48.3711C190.999 48.5375 190.934 48.6968 190.819 48.8144C190.704 48.9321 190.548 48.9988 190.386 49H174.61C174.448 48.9988 174.293 48.9319 174.178 48.8141C174.064 48.6963 174 48.5371 174 48.3711V22.6242C174 22.4586 174.064 22.2999 174.179 22.1828C174.293 22.0658 174.448 22 174.61 22H190.386C190.545 22.0049 190.695 22.0727 190.807 22.1891C190.918 22.3055 190.98 22.4614 190.982 22.6242Z" fill="#4DB8E0"/>
    <path d="M206.093 39.6167V48.3499C206.093 48.5159 206.029 48.6751 205.916 48.7929C205.802 48.9107 205.647 48.9775 205.486 48.9787H200.607C200.446 48.9775 200.291 48.9107 200.178 48.7929C200.064 48.6751 200 48.5159 200 48.3499V22.6279C200 22.4624 200.064 22.3036 200.178 22.1866C200.292 22.0695 200.446 22.0038 200.607 22.0038H208.546C210.185 21.9693 211.821 22.1714 213.406 22.6043C214.601 22.9293 215.719 23.5004 216.692 24.2828C217.506 24.9539 218.14 25.828 218.533 26.8219C218.926 27.8352 219.123 28.9178 219.113 30.0088C219.117 30.8492 219.001 31.6857 218.767 32.4911C218.545 33.2618 218.201 33.99 217.75 34.6473C217.288 35.3221 216.728 35.9201 216.089 36.4204C215.699 36.7279 215.284 36.9985 214.846 37.2289C214.754 37.2777 214.674 37.35 214.616 37.4388C214.558 37.5277 214.522 37.6303 214.513 37.7371C214.504 37.8438 214.521 37.9513 214.563 38.0493C214.606 38.1473 214.671 38.2327 214.754 38.2975L214.971 38.4772C215.335 38.8002 215.646 39.1819 215.891 39.6073L220.917 48.0473C220.97 48.1422 220.999 48.2499 221 48.3598C221.001 48.4697 220.973 48.5778 220.921 48.6735C220.868 48.7691 220.792 48.849 220.7 48.905C220.608 48.961 220.504 48.9914 220.397 48.9929H215.965C215.527 49.0275 215.088 48.9345 214.699 48.7246C214.31 48.5147 213.986 48.1964 213.765 47.8061L209.402 39.9524C209.248 39.6453 209.014 39.3883 208.726 39.2101C208.385 39.0455 208.011 38.9692 207.635 38.9878H206.714C206.634 38.9872 206.553 39.003 206.478 39.0343C206.403 39.0655 206.335 39.1117 206.277 39.1701C206.219 39.2285 206.173 39.298 206.142 39.3746C206.11 39.4512 206.094 39.5335 206.093 39.6167V39.6167ZM206.093 34.0468C206.094 34.2127 206.159 34.3715 206.274 34.4884C206.389 34.6053 206.544 34.6709 206.705 34.6709H208.546C209.266 34.6878 209.983 34.5791 210.668 34.3494C211.203 34.1613 211.692 33.8546 212.099 33.451C212.469 33.073 212.748 32.6116 212.914 32.1034C213.084 31.5695 213.17 31.0106 213.167 30.4485C213.193 29.9279 213.106 29.4078 212.911 28.9266C212.716 28.4454 212.418 28.0153 212.039 27.6683C211.284 27 210.12 26.6659 208.546 26.6659H206.705C206.543 26.6671 206.388 26.7338 206.274 26.8514C206.159 26.9691 206.094 27.1283 206.093 27.2948V34.0468Z" fill="#4DB8E0"/>
    <path d="M246.541 41.8933C246.703 41.8935 246.864 41.926 247.013 41.9888C247.162 42.0516 247.296 42.1434 247.409 42.2588L249.495 44.4238C249.599 44.5341 249.659 44.6781 249.663 44.8288C249.667 44.9796 249.616 45.1267 249.518 45.2426C248.511 46.4136 247.246 47.3424 245.819 47.9582C243.99 48.6965 242.024 49.0495 240.048 48.9944C238.174 49.0263 236.314 48.6784 234.582 47.9721C233.027 47.3287 231.63 46.365 230.484 45.1455C229.341 43.9047 228.462 42.4494 227.901 40.8663C227.288 39.1394 226.983 37.3205 227.001 35.4907C226.981 33.6312 227.332 31.786 228.032 30.0597C228.688 28.4442 229.678 26.9817 230.94 25.766C232.202 24.5503 233.707 23.6083 235.36 23.0002C237.164 22.319 239.082 21.98 241.014 22.0009C241.966 21.996 242.916 22.0843 243.85 22.2646C244.702 22.4281 245.535 22.6713 246.34 22.9909C247.088 23.2847 247.803 23.6553 248.473 24.0966C248.944 24.4066 249.389 24.7531 249.804 25.1328C249.916 25.236 249.985 25.3762 249.998 25.5266C250.011 25.6769 249.967 25.8267 249.875 25.947L248.102 28.2925C247.968 28.4666 247.81 28.6221 247.634 28.7551C247.328 28.9385 246.964 29.0044 246.612 28.9401C246.543 28.9352 246.477 28.918 246.415 28.8892C246.137 28.7632 245.869 28.6179 245.613 28.4544L244.891 27.9918C244.593 27.8101 244.279 27.6552 243.953 27.5292C243.541 27.3765 243.116 27.2589 242.683 27.1776C242.124 27.0728 241.555 27.0232 240.986 27.0295C239.927 27.0165 238.877 27.2181 237.901 27.6217C236.985 28.0017 236.165 28.5767 235.5 29.3056C234.809 30.0814 234.279 30.9836 233.939 31.961C233.55 33.0879 233.36 34.2725 233.377 35.463C233.356 36.7048 233.551 37.9409 233.953 39.1176C234.284 40.0911 234.801 40.9926 235.477 41.773C236.097 42.4741 236.865 43.0331 237.727 43.4107C238.596 43.7883 239.535 43.9806 240.484 43.9751C240.999 43.9777 241.515 43.9499 242.026 43.8918C242.468 43.8443 242.903 43.7513 243.325 43.6142C243.722 43.4815 244.104 43.3078 244.464 43.0961C244.851 42.8638 245.216 42.5991 245.557 42.305C245.699 42.1863 245.857 42.0867 246.026 42.009C246.187 41.9341 246.363 41.8946 246.541 41.8933V41.8933Z" fill="#4DB8E0"/>
    <path d="M275 22.6242V26.1895C275 26.3563 274.935 26.5163 274.82 26.6342C274.704 26.7521 274.548 26.8184 274.385 26.8184H264.775C264.613 26.8184 264.457 26.884 264.342 27.0009C264.227 27.1179 264.161 27.2766 264.16 27.4426V32.4926C264.161 32.6586 264.227 32.8174 264.342 32.9343C264.457 33.0512 264.613 33.1168 264.775 33.1168H271.851C271.931 33.1168 272.011 33.1331 272.085 33.1648C272.16 33.1964 272.227 33.2428 272.284 33.3013C272.341 33.3598 272.386 33.4291 272.416 33.5054C272.446 33.5817 272.462 33.6633 272.461 33.7457V37.1219C272.462 37.2043 272.446 37.2859 272.416 37.3622C272.386 37.4385 272.341 37.5078 272.284 37.5663C272.227 37.6248 272.16 37.6712 272.085 37.7028C272.011 37.7345 271.931 37.7508 271.851 37.7508H264.775C264.613 37.7508 264.457 37.8164 264.342 37.9333C264.227 38.0502 264.161 38.209 264.16 38.375V43.5527C264.161 43.7191 264.226 43.8784 264.341 43.996C264.457 44.1137 264.612 44.1804 264.775 44.1816H274.385C274.465 44.181 274.545 44.1967 274.62 44.2278C274.695 44.2588 274.762 44.3047 274.82 44.3627C274.877 44.4208 274.922 44.4898 274.953 44.5658C274.984 44.6418 275 44.7234 275 44.8058V48.3711C275 48.5379 274.935 48.6978 274.82 48.8158C274.704 48.9337 274.548 49 274.385 49H258.61C258.448 48.9988 258.293 48.9319 258.179 48.8141C258.064 48.6963 258 48.5371 258 48.3711V22.6242C258 22.4586 258.064 22.2999 258.179 22.1828C258.293 22.0658 258.449 22 258.61 22H274.385C274.465 21.9994 274.545 22.0151 274.62 22.0462C274.695 22.0773 274.762 22.1231 274.82 22.1812C274.877 22.2392 274.922 22.3082 274.953 22.3842C274.984 22.4603 275 22.5418 275 22.6242V22.6242Z" fill="#4DB8E0"/>
    <path d="M290.133 40.6101V48.3707C290.132 48.5372 290.066 48.6966 289.951 48.8143C289.835 48.9321 289.679 48.9988 289.516 49H284.612C284.45 48.9988 284.294 48.9319 284.179 48.814C284.064 48.6961 284 48.5368 284 48.3707V22.6285C284 22.4628 284.065 22.304 284.179 22.1868C284.294 22.0697 284.45 22.0039 284.612 22.0039H293.343C294.972 21.9669 296.596 22.1953 298.154 22.6805C299.372 23.0602 300.499 23.6952 301.462 24.545C302.311 25.3082 302.969 26.2669 303.382 27.3416C303.799 28.4549 304.008 29.6376 303.999 30.8291C304.013 32.095 303.797 33.3527 303.364 34.539C302.95 35.6474 302.282 36.6387 301.415 37.4302C300.452 38.292 299.322 38.937 298.098 39.323C296.558 39.8031 294.953 40.0315 293.343 39.9997H290.759C290.679 39.9978 290.599 40.0121 290.524 40.0418C290.449 40.0715 290.38 40.1159 290.322 40.1726C290.264 40.2293 290.217 40.2971 290.185 40.3722C290.152 40.4473 290.135 40.5281 290.133 40.6101V40.6101ZM290.133 34.6242C290.133 34.7903 290.197 34.9496 290.312 35.0675C290.427 35.1854 290.583 35.2523 290.745 35.2535H293.329C294.93 35.2535 296.08 34.8607 296.786 34.0847C297.532 33.1729 297.908 32.0051 297.839 30.8196C297.847 30.2459 297.754 29.6753 297.565 29.135C297.393 28.6385 297.111 28.1897 296.739 27.8243C296.342 27.4425 295.866 27.1549 295.347 26.982C294.699 26.77 294.02 26.6692 293.339 26.6838H290.755C290.592 26.6851 290.436 26.7519 290.321 26.8698C290.207 26.9877 290.142 27.1471 290.142 27.3132L290.133 34.6242Z" fill="#4DB8E0"/>
    <path d="M332 22.6247V26.3446C332 26.4266 331.984 26.5079 331.953 26.5837C331.923 26.6595 331.878 26.7284 331.821 26.7864C331.764 26.8444 331.697 26.8904 331.622 26.9218C331.548 26.9532 331.469 26.9693 331.388 26.9693H325.171C325.009 26.9693 324.854 27.0351 324.739 27.1523C324.624 27.2695 324.56 27.4284 324.56 27.594V48.3706C324.559 48.5371 324.493 48.6965 324.378 48.8143C324.263 48.9321 324.107 48.9988 323.944 49H319.028C318.866 48.9988 318.71 48.9319 318.596 48.814C318.481 48.6961 318.417 48.5367 318.417 48.3706V27.5704C318.417 27.4883 318.401 27.4071 318.37 27.3313C318.34 27.2555 318.295 27.1867 318.238 27.1286C318.181 27.0706 318.114 27.0246 318.039 26.9932C317.965 26.9618 317.886 26.9457 317.805 26.9457H311.616C311.454 26.9457 311.298 26.88 311.182 26.763C311.067 26.646 311.001 26.4871 311 26.3209V22.6247C311.001 22.4586 311.067 22.2997 311.182 22.1827C311.298 22.0657 311.454 22 311.616 22H331.412C331.57 22.0061 331.719 22.0746 331.829 22.1911C331.939 22.3076 332 22.4631 332 22.6247Z" fill="#4DB8E0"/>
    <path d="M345.401 49H340.599C340.44 48.9988 340.289 48.9321 340.177 48.8143C340.065 48.6965 340.001 48.5371 340 48.3706V22.6247C340.001 22.4586 340.065 22.2997 340.177 22.1827C340.289 22.0657 340.441 22 340.599 22H345.401C345.48 21.9994 345.558 22.0151 345.63 22.0462C345.703 22.0773 345.769 22.1232 345.824 22.1813C345.88 22.2394 345.924 22.3085 345.954 22.3846C345.984 22.4607 346 22.5423 346 22.6247V48.3706C346 48.5375 345.937 48.6976 345.825 48.8156C345.712 48.9337 345.56 49 345.401 49Z" fill="#4DB8E0"/>
    <path d="M374.538 41.8774C374.689 41.8777 374.839 41.9059 374.98 41.9606C375.14 42.0221 375.285 42.1185 375.402 42.2426L377.491 44.4059C377.597 44.515 377.658 44.6588 377.664 44.8097C377.669 44.9605 377.617 45.108 377.519 45.224C376.51 46.3953 375.241 47.3234 373.811 47.9374C371.985 48.6824 370.022 49.0429 368.046 48.9959C366.175 49.0183 364.318 48.6628 362.592 47.9513C361.035 47.3084 359.636 46.3455 358.489 45.127C357.344 43.8872 356.464 42.433 355.902 40.8512C355.288 39.1257 354.983 37.3082 355.001 35.48C354.979 33.6217 355.33 31.7775 356.034 30.0532C356.687 28.4422 357.673 26.9829 358.931 25.7684C360.189 24.5538 361.69 23.6108 363.338 22.9994C365.146 22.3182 367.068 21.9794 369.004 22.001C369.957 21.9961 370.908 22.0843 371.844 22.2644C372.696 22.4278 373.531 22.6708 374.337 22.9902C375.086 23.2837 375.802 23.654 376.472 24.0949C376.944 24.4047 377.39 24.751 377.806 25.1303C377.916 25.234 377.985 25.374 377.998 25.5239C378.011 25.6739 377.967 25.8233 377.876 25.9439L376.102 28.2875C375.968 28.4623 375.81 28.6178 375.632 28.7497C375.328 28.9379 374.963 29.0071 374.609 28.9438C374.54 28.9389 374.474 28.9217 374.412 28.893C374.134 28.7671 373.866 28.6219 373.609 28.4585L372.886 27.9962C372.588 27.8147 372.274 27.66 371.947 27.534C371.534 27.3815 371.108 27.2639 370.675 27.1827C370.115 27.078 369.546 27.0285 368.976 27.0348C367.914 27.0224 366.862 27.2237 365.882 27.6265C364.967 28.0074 364.148 28.5818 363.483 29.309C362.791 30.0842 362.26 30.9857 361.92 31.9623C361.53 33.0883 361.34 34.2719 361.357 35.4615C361.337 36.686 361.527 37.905 361.92 39.067C362.251 40.0396 362.769 40.9405 363.446 41.7202C364.067 42.4208 364.836 42.9792 365.699 43.3566C366.569 43.7339 367.509 43.926 368.459 43.9205C368.975 43.9232 369.491 43.8954 370.004 43.8373C370.446 43.7898 370.882 43.6969 371.304 43.56C371.701 43.4255 372.083 43.252 372.445 43.0422C372.832 42.8101 373.198 42.5457 373.539 42.2518C373.681 42.1332 373.839 42.0337 374.008 41.956C374.177 41.8918 374.358 41.865 374.538 41.8774V41.8774Z" fill="#4DB8E0"/>
    <path d="M88.9009 22H85.0991C84.4921 22 84 22.4936 84 23.1024V26.8976C84 27.5064 84.4921 28 85.0991 28H88.9009C89.5079 28 90 27.5064 90 26.8976V23.1024C90 22.4936 89.5079 22 88.9009 22Z" fill="#4DB8E0"/>
    <path d="M104.908 22.0382C105.068 22.0614 105.224 22.1077 105.371 22.1758C105.524 22.25 105.664 22.3476 105.788 22.4652C105.953 22.6202 106.108 22.7867 106.251 22.9633L118.754 39.1785C118.703 38.6614 118.67 38.1586 118.642 37.6699C118.615 37.1813 118.61 36.7211 118.61 36.2894V23.0298C118.61 22.7567 118.716 22.4949 118.904 22.3018C119.093 22.1088 119.348 22.0003 119.615 22.0003H122.995C123.262 22.0003 123.517 22.1088 123.706 22.3018C123.894 22.4949 124 22.7567 124 23.0298V47.9693C124 48.2423 123.894 48.5042 123.706 48.6972C123.517 48.8903 123.262 48.9987 122.995 48.9987H120.814C120.406 49.0108 119.999 48.9365 119.619 48.7805C119.252 48.5873 118.935 48.3077 118.693 47.9645L106.27 31.8774C106.302 32.3518 106.334 32.8262 106.358 33.258C106.381 33.6897 106.395 34.1309 106.395 34.5294V47.9693C106.395 48.2423 106.289 48.5042 106.1 48.6972C105.912 48.8903 105.656 48.9987 105.39 48.9987H102.005C101.738 48.9987 101.483 48.8903 101.294 48.6972C101.106 48.5042 101 48.2423 101 47.9693V23.0298C101 22.7567 101.106 22.4949 101.294 22.3018C101.483 22.1088 101.738 22.0003 102.005 22.0003H104.218C104.449 21.9978 104.679 22.0105 104.908 22.0382V22.0382Z" fill="#4DB8E0"/>
    <path d="M84 36.1154V47.88C84 48.0271 84.0284 48.1727 84.0835 48.3086C84.1387 48.4445 84.2195 48.568 84.3214 48.672C84.4233 48.776 84.5443 48.8585 84.6775 48.9147C84.8106 48.971 84.9533 49 85.0975 49H88.9026C89.1932 48.9988 89.4717 48.8804 89.6773 48.6706C89.8828 48.4609 89.9988 48.1767 90 47.88V36.1154C89.9988 35.8192 89.8827 35.5355 89.677 35.3265C89.4713 35.1174 89.1928 35 88.9026 35H85.1019C84.9577 34.9988 84.8146 35.0268 84.6809 35.0823C84.5473 35.1378 84.4257 35.2198 84.3233 35.3235C84.2208 35.4272 84.1395 35.5505 84.084 35.6865C84.0286 35.8224 84 35.9682 84 36.1154Z" fill="#4DB8E0"/>
</svg>
